# xmcd
# 
# Track frame offsets:
#     150
#     14764
#     25058
#     36906
#     55001
#     69206
#     90474
#     105455
#     118018
#     129710
#     146360
#     159595
#     172382
#     188479
#     201820
#     214756
#     226172
#     237032
#     252516
#     271119
# 
# Disc length: 3822
# 
# Revision: 1
# Processed by: cddbd v1.5.2PL0 Copyright (c) Steve Scherf et al.
# Submitted via: fre:ac v1.0.17
# 
DISCID=100eec14
DTITLE=Various Artist - Reggae Love Collection [CD2]
DYEAR=2003
DGENRE=Reggae
TTITLE0=Penn, Dawn - No No No (Trojan mix)
TTITLE1=Ray, Danny - Can't Get Used To Losing You
TTITLE2=Faith, Horace - Black Pearl
TTITLE3=Greyhound - Unchained Melody
TTITLE4=Uniques - Lonely For Your Love
TTITLE5=Gray, Owen - I Can't Stop Loving You
TTITLE6=Robinson, Jackie - Homely Girl
TTITLE7=Peggy - All Kinds Of Everything
TTITLE8=Livingstone, Dandy - Suzanne Beware Of The Devil
TTITLE9=Brown, Teddy - Let's Spend The Night Together
TTITLE10=Tribe, Tony - Red Red Wine
TTITLE11=Maroons - I'm Leaving It Up To You
TTITLE12=Kay, Janet - Lovin' You
TTITLE13=Marvels - Then He Kissed Me
TTITLE14=Cole, Nat - Sugar Sugar
TTITLE15=Coloured Raisins - One Way Love
TTITLE16=Davis, Del - World Without Love
TTITLE17=Dennis, Denzil - All I Have To Do Is Dream
TTITLE18=Wilson, Delroy - You Sexy Thing
TTITLE19=Groovy, Winston - Please Don't Make Me Cry
EXTD=
EXTT0=
EXTT1=
EXTT2=
EXTT3=
EXTT4=
EXTT5=
EXTT6=
EXTT7=
EXTT8=
EXTT9=
EXTT10=
EXTT11=
EXTT12=
EXTT13=
EXTT14=
EXTT15=
EXTT16=
EXTT17=
EXTT18=
EXTT19=
PLAYORDER=
